<?xml version="1.0" encoding="UTF-8"?>
<svg width="4375px" height="4375px" viewBox="0 0 4375 4375" version="1.1" xmlns="http://www.w3.org/2000/svg" xmlns:xlink="http://www.w3.org/1999/xlink">
    <!-- Generator: Sketch 53.2 (72643) - https://sketchapp.com -->
    <title>wireframe</title>
    <desc>Created with Sketch.</desc>
    <g id="wireframe" stroke="none" stroke-width="1" fill="none" fill-rule="evenodd">
        <rect fill="#EBFFD4" x="0" y="0" width="4375" height="4375"></rect>
        <g id="4-1-parent" transform="translate(3030.000000, 1721.000000)">
            <rect id="Rectangle" fill="#FFFFFF" x="0" y="0" width="1024" height="768"></rect>
            <g id="Group-Copy" transform="translate(88.000000, 364.000000)" fill="#D8D8D8">
                <rect id="Rectangle" x="0" y="0" width="170" height="170"></rect>
                <rect id="Rectangle-Copy" x="215" y="0" width="170" height="170"></rect>
                <rect id="Rectangle-Copy-2" x="430" y="0" width="170" height="170"></rect>
                <rect id="Rectangle-Copy-3" x="645" y="0" width="170" height="170"></rect>
            </g>
            <g id="parent" transform="translate(870.000000, 33.000000)">
                <circle id="Oval" fill="#D8D8D8" cx="50" cy="50" r="50"></circle>
                <text id="X" font-family="Calibri-Bold, Calibri" font-size="70" font-weight="bold" letter-spacing="0.3234476" fill="#727272">
                    <tspan x="31.0609324" y="74">X</tspan>
                </text>
            </g>
            <text id="Passcode:-two-sevent" font-family="Calibri-Bold, Calibri" font-size="60" font-weight="bold" letter-spacing="0.1386204" fill="#727272">
                <tspan x="86" y="118">Passcode:</tspan>
                <tspan x="86" y="191">two-seventeen-eight</tspan>
            </text>
        </g>
        <g id="4-0-parent" transform="translate(3030.000000, 2589.000000)">
            <rect id="Rectangle" fill="#FFFFFF" x="0" y="0" width="1024" height="768"></rect>
            <g id="Group" transform="translate(83.000000, 384.000000)">
                <rect id="Rectangle" fill="#D8D8D8" x="0" y="0" width="887" height="343"></rect>
                <text id="new-story-themes-for" font-family="Calibri-Bold, Calibri" font-size="60" font-weight="bold" letter-spacing="0.1386204" fill="#727272">
                    <tspan x="219.971115" y="156">new story themes</tspan>
                    <tspan x="287.587223" y="229">for purchase</tspan>
                </text>
            </g>
            <g id="Group-3" transform="translate(46.000000, 33.000000)">
                <path d="M93,186 C144.362482,186 186,144.362482 186,93 C186,41.6375183 144.362482,0 93,0 C64.6547584,0 39.2713207,12.6809901 22.2133818,32.6792754 C8.36179147,48.9185208 0,69.9827599 0,93 C0,144.362482 41.6375183,186 93,186 Z" id="Oval" fill="#D8D8D8"></path>
                <text id="Embodied-Agent" font-family="Calibri-Bold, Calibri" font-size="35" font-weight="bold" letter-spacing="0.1212929" fill="#727272">
                    <tspan x="19.054135" y="87">Embodied</tspan>
                    <tspan x="49.8781642" y="129">Agent</tspan>
                </text>
            </g>
            <g id="Group-Copy" transform="translate(312.000000, 83.000000)">
                <rect id="Rectangle" fill="#D8D8D8" x="0" y="0" width="400" height="254"></rect>
                <text id="set-playing-time-lim" font-family="Calibri-Bold, Calibri" font-size="60" font-weight="bold" letter-spacing="0.1386204" fill="#727272">
                    <tspan x="65.5559472" y="121">set playing</tspan>
                    <tspan x="78.6144894" y="194">time limit</tspan>
                </text>
            </g>
            <g id="parent" transform="translate(870.000000, 33.000000)">
                <circle id="Oval" fill="#D8D8D8" cx="50" cy="50" r="50"></circle>
                <text id="X" font-family="Calibri-Bold, Calibri" font-size="70" font-weight="bold" letter-spacing="0.3234476" fill="#727272">
                    <tspan x="31.0609324" y="74">X</tspan>
                </text>
            </g>
        </g>
        <g id="3-2-draw-completed" transform="translate(1856.000000, 3457.000000)">
            <rect id="outer" fill="#FFFFFF" x="0" y="0" width="1024" height="768"></rect>
            <rect id="inner" fill="#B8B8B8" x="19" y="26" width="987" height="718" rx="50"></rect>
            <g id="new" transform="translate(59.000000, 85.000000)">
                <rect id="Rectangle" fill="#FCFCFC" x="0" y="0" width="900" height="599"></rect>
                <text id="Completed-story’s-vi" font-family="Calibri-Bold, Calibri" font-size="80" font-weight="bold" letter-spacing="0.0693102032" fill="#727272">
                    <tspan x="150.399145" y="300">Completed story’s </tspan>
                    <tspan x="358.471256" y="397">video</tspan>
                </text>
            </g>
            <g id="Group-3" transform="translate(419.000000, 0.000000)">
                <path d="M93,186 C144.362482,186 186,144.362482 186,93 C186,41.6375183 144.362482,0 93,0 C64.6547584,0 39.2713207,12.6809901 22.2133818,32.6792754 C8.36179147,48.9185208 0,69.9827599 0,93 C0,144.362482 41.6375183,186 93,186 Z" id="Oval" fill="#D8D8D8"></path>
                <text id="Embodied-Agent" font-family="Calibri-Bold, Calibri" font-size="35" font-weight="bold" letter-spacing="0.1212929" fill="#727272">
                    <tspan x="19.054135" y="87">Embodied</tspan>
                    <tspan x="49.8781642" y="129">Agent</tspan>
                </text>
            </g>
            <g id="Group-3" transform="translate(449.000000, 648.000000)">
                <path d="M60,120 C93.137085,120 120,93.137085 120,60 C120,26.862915 93.137085,0 60,0 C41.7127473,0 25.3363359,8.18128394 14.3312141,21.0834035 C5.39470417,31.560336 0,45.1501677 0,60 C0,93.137085 26.862915,120 60,120 Z" id="Oval" fill="#D8D8D8"></path>
                <text id="exit" font-family="Calibri-Bold, Calibri" font-size="35" font-weight="bold" letter-spacing="0.1212929" fill="#727272">
                    <tspan x="32.8152755" y="72">exit</tspan>
                </text>
            </g>
        </g>
        <g id="3-1-draw-cartoon" transform="translate(1856.000000, 2589.000000)">
            <rect id="outer" fill="#FFFFFF" x="0" y="0" width="1024" height="768"></rect>
            <rect id="inner" fill="#B8B8B8" x="19" y="26" width="987" height="718" rx="50"></rect>
            <g id="new" transform="translate(59.000000, 85.000000)">
                <rect id="Rectangle" fill="#FCFCFC" x="0" y="0" width="769" height="599"></rect>
                <text id="cartoon-animation-gu" font-family="Calibri-Bold, Calibri" font-size="80" font-weight="bold" letter-spacing="0.0924136" fill="#727272">
                    <tspan x="256.258584" y="279">cartoon</tspan>
                    <tspan x="114.11873" y="376">animation guide</tspan>
                </text>
            </g>
            <g id="new" transform="translate(858.000000, 85.000000)">
                <rect id="Rectangle" fill="#FCFCFC" x="0" y="0" width="120" height="599"></rect>
                <text id="color-palette" font-family="Calibri-Bold, Calibri" font-size="30" font-weight="bold" letter-spacing="0.0693102032" fill="#727272">
                    <tspan x="28.9790682" y="293">color</tspan>
                    <tspan x="16.4932413" y="330">palette</tspan>
                </text>
            </g>
            <g id="Group-3" transform="translate(6.000000, 576.000000)">
                <path d="M93,186 C144.362482,186 186,144.362482 186,93 C186,41.6375183 144.362482,0 93,0 C64.6547584,0 39.2713207,12.6809901 22.2133818,32.6792754 C8.36179147,48.9185208 0,69.9827599 0,93 C0,144.362482 41.6375183,186 93,186 Z" id="Oval" fill="#D8D8D8"></path>
                <text id="Embodied-Agent" font-family="Calibri-Bold, Calibri" font-size="35" font-weight="bold" letter-spacing="0.1212929" fill="#727272">
                    <tspan x="19.054135" y="87">Embodied</tspan>
                    <tspan x="49.8781642" y="129">Agent</tspan>
                </text>
            </g>
            <g id="Group-3" transform="translate(886.000000, 642.000000)">
                <path d="M60,120 C93.137085,120 120,93.137085 120,60 C120,26.862915 93.137085,0 60,0 C41.7127473,0 25.3363359,8.18128394 14.3312141,21.0834035 C5.39470417,31.560336 0,45.1501677 0,60 C0,93.137085 26.862915,120 60,120 Z" id="Oval" fill="#D8D8D8"></path>
                <text id="save" font-family="Calibri-Bold, Calibri" font-size="35" font-weight="bold" letter-spacing="0.1212929" fill="#727272">
                    <tspan x="27.4576095" y="72">save</tspan>
                </text>
            </g>
            <g id="Group-3" transform="translate(6.000000, 12.000000)">
                <path d="M60,120 C93.137085,120 120,93.137085 120,60 C120,26.862915 93.137085,0 60,0 C41.7127473,0 25.3363359,8.18128394 14.3312141,21.0834035 C5.39470417,31.560336 0,45.1501677 0,60 C0,93.137085 26.862915,120 60,120 Z" id="Oval" fill="#D8D8D8"></path>
                <text id="back" font-family="Calibri-Bold, Calibri" font-size="35" font-weight="bold" letter-spacing="0.1212929" fill="#727272">
                    <tspan x="26.0049728" y="72">back</tspan>
                </text>
            </g>
        </g>
        <g id="3-0-draw" transform="translate(1856.000000, 1721.000000)">
            <rect id="outer" fill="#FFFFFF" x="0" y="0" width="1024" height="768"></rect>
            <rect id="inner" fill="#B8B8B8" x="19" y="26" width="987" height="718" rx="50"></rect>
            <g id="new" transform="translate(59.000000, 85.000000)">
                <rect id="Rectangle" fill="#FCFCFC" x="0" y="0" width="769" height="599"></rect>
                <text id="story-and-drawing-ca" font-family="Calibri-Bold, Calibri" font-size="80" font-weight="bold" letter-spacing="0.0924136043" fill="#727272">
                    <tspan x="229.037264" y="279">story and </tspan>
                    <tspan x="129.821855" y="376">drawing canvas</tspan>
                </text>
            </g>
            <g id="new" transform="translate(858.000000, 85.000000)">
                <rect id="Rectangle" fill="#FCFCFC" x="0" y="0" width="120" height="599"></rect>
                <text id="color-palette" font-family="Calibri-Bold, Calibri" font-size="30" font-weight="bold" letter-spacing="0.0693102032" fill="#727272">
                    <tspan x="28.9790682" y="293">color</tspan>
                    <tspan x="16.4932413" y="330">palette</tspan>
                </text>
            </g>
            <g id="Group-3" transform="translate(6.000000, 576.000000)">
                <path d="M93,186 C144.362482,186 186,144.362482 186,93 C186,41.6375183 144.362482,0 93,0 C64.6547584,0 39.2713207,12.6809901 22.2133818,32.6792754 C8.36179147,48.9185208 0,69.9827599 0,93 C0,144.362482 41.6375183,186 93,186 Z" id="Oval" fill="#D8D8D8"></path>
                <text id="Embodied-Agent" font-family="Calibri-Bold, Calibri" font-size="35" font-weight="bold" letter-spacing="0.1212929" fill="#727272">
                    <tspan x="19.054135" y="87">Embodied</tspan>
                    <tspan x="49.8781642" y="129">Agent</tspan>
                </text>
            </g>
            <g id="Group-3" transform="translate(886.000000, 642.000000)">
                <path d="M60,120 C93.137085,120 120,93.137085 120,60 C120,26.862915 93.137085,0 60,0 C41.7127473,0 25.3363359,8.18128394 14.3312141,21.0834035 C5.39470417,31.560336 0,45.1501677 0,60 C0,93.137085 26.862915,120 60,120 Z" id="Oval" fill="#D8D8D8"></path>
                <text id="save" font-family="Calibri-Bold, Calibri" font-size="35" font-weight="bold" letter-spacing="0.1212929" fill="#727272">
                    <tspan x="27.4576095" y="72">save</tspan>
                </text>
            </g>
            <g id="Group-3" transform="translate(6.000000, 12.000000)">
                <path d="M60,120 C93.137085,120 120,93.137085 120,60 C120,26.862915 93.137085,0 60,0 C41.7127473,0 25.3363359,8.18128394 14.3312141,21.0834035 C5.39470417,31.560336 0,45.1501677 0,60 C0,93.137085 26.862915,120 60,120 Z" id="Oval" fill="#D8D8D8"></path>
                <text id="back" font-family="Calibri-Bold, Calibri" font-size="35" font-weight="bold" letter-spacing="0.1212929" fill="#727272">
                    <tspan x="26.0049728" y="72">back</tspan>
                </text>
            </g>
        </g>
        <g id="2-1-theme-interact" transform="translate(683.000000, 2590.000000)">
            <rect id="outer" fill="#FFFFFF" x="0" y="0" width="1024" height="768"></rect>
            <path d="M130,173 L895,173 C928.137085,173 955,199.862915 955,233 L955,740 L70,740 L70,233 C70,199.862915 96.862915,173 130,173 Z" id="inner" fill="#B8B8B8"></path>
            <text id="Theme-Name" font-family="Calibri-Bold, Calibri" font-size="60" font-weight="bold" letter-spacing="0.05198265" fill="#727272">
                <tspan x="345.819188" y="113">Theme Name</tspan>
            </text>
            <g id="1" transform="translate(170.000000, 237.000000)">
                <rect id="Rectangle" fill="#F2F2F2" x="0" y="0" width="668" height="459"></rect>
                <text id="Interact-with-the-st" font-family="Calibri-Bold, Calibri" font-size="80" font-weight="bold" letter-spacing="0.0693102032" fill="#727272">
                    <tspan x="120.580734" y="209">Interact with </tspan>
                    <tspan x="185.34826" y="306">the story</tspan>
                </text>
            </g>
            <g id="Group-3" transform="translate(30.000000, 30.000000)">
                <path d="M60,120 C93.137085,120 120,93.137085 120,60 C120,26.862915 93.137085,0 60,0 C41.7127473,0 25.3363359,8.18128394 14.3312141,21.0834035 C5.39470417,31.560336 0,45.1501677 0,60 C0,93.137085 26.862915,120 60,120 Z" id="Oval" fill="#D8D8D8"></path>
                <text id="back" font-family="Calibri-Bold, Calibri" font-size="35" font-weight="bold" letter-spacing="0.1212929" fill="#727272">
                    <tspan x="26.0049728" y="70">back</tspan>
                </text>
            </g>
            <g id="parent" transform="translate(870.000000, 33.000000)">
                <circle id="Oval" fill="#D8D8D8" cx="50" cy="50" r="50"></circle>
                <text id="parent-mode" font-family="Calibri-Bold, Calibri" font-size="30" font-weight="bold" letter-spacing="0.1386204" fill="#727272">
                    <tspan x="8.30484192" y="42">parent</tspan>
                    <tspan x="13.85606" y="79">mode</tspan>
                </text>
            </g>
            <g id="edit" transform="translate(873.000000, 646.000000)">
                <circle id="Oval" fill="#D8D8D8" cx="50" cy="50" r="50"></circle>
                <text font-family="Calibri-Bold, Calibri" font-size="30" font-weight="bold" letter-spacing="0.1386204" fill="#727272">
                    <tspan x="25.2378959" y="61">edit</tspan>
                </text>
            </g>
            <g id="Group-3" transform="translate(20.000000, 562.000000)">
                <path d="M93,186 C144.362482,186 186,144.362482 186,93 C186,41.6375183 144.362482,0 93,0 C64.6547584,0 39.2713207,12.6809901 22.2133818,32.6792754 C8.36179147,48.9185208 0,69.9827599 0,93 C0,144.362482 41.6375183,186 93,186 Z" id="Oval" fill="#D8D8D8"></path>
                <text id="Embodied-Agent" font-family="Calibri-Bold, Calibri" font-size="35" font-weight="bold" letter-spacing="0.1212929" fill="#727272">
                    <tspan x="19.054135" y="87">Embodied</tspan>
                    <tspan x="49.8781642" y="129">Agent</tspan>
                </text>
            </g>
            <polygon id="Triangle" fill="#D8D8D8" transform="translate(946.500000, 456.500000) rotate(90.000000) translate(-946.500000, -456.500000) " points="946.5 433 992 480 901 480"></polygon>
        </g>
        <g id="2-0-theme" transform="translate(682.000000, 1721.000000)">
            <rect id="outer" fill="#FFFFFF" x="0" y="0" width="1024" height="768"></rect>
            <path d="M130,173 L895,173 C928.137085,173 955,199.862915 955,233 L955,740 L70,740 L70,233 C70,199.862915 96.862915,173 130,173 Z" id="inner" fill="#B8B8B8"></path>
            <text id="Theme-Name" font-family="Calibri-Bold, Calibri" font-size="60" font-weight="bold" letter-spacing="0.0519826524" fill="#727272">
                <tspan x="345.819188" y="113">Theme Name</tspan>
            </text>
            <g id="1" transform="translate(170.000000, 237.000000)">
                <rect id="Rectangle" fill="#F2F2F2" x="0" y="0" width="668" height="459"></rect>
                <text id="Completed-story’s-vi" font-family="Calibri-Bold, Calibri" font-size="80" font-weight="bold" letter-spacing="0.0693102032" fill="#727272">
                    <tspan x="152.340448" y="209">Completed </tspan>
                    <tspan x="123.529952" y="306">story’s video</tspan>
                </text>
            </g>
            <g id="Group-3" transform="translate(30.000000, 30.000000)">
                <path d="M60,120 C93.137085,120 120,93.137085 120,60 C120,26.862915 93.137085,0 60,0 C41.7127473,0 25.3363359,8.18128394 14.3312141,21.0834035 C5.39470417,31.560336 0,45.1501677 0,60 C0,93.137085 26.862915,120 60,120 Z" id="Oval" fill="#D8D8D8"></path>
                <text id="back" font-family="Calibri-Bold, Calibri" font-size="35" font-weight="bold" letter-spacing="0.1212929" fill="#727272">
                    <tspan x="26.0049728" y="70">back</tspan>
                </text>
            </g>
            <g id="parent" transform="translate(870.000000, 33.000000)">
                <circle id="Oval" fill="#D8D8D8" cx="50" cy="50" r="50"></circle>
                <text id="parent-mode" font-family="Calibri-Bold, Calibri" font-size="30" font-weight="bold" letter-spacing="0.1386204" fill="#727272">
                    <tspan x="8.30484192" y="42">parent</tspan>
                    <tspan x="13.85606" y="79">mode</tspan>
                </text>
            </g>
            <g id="edit" transform="translate(873.000000, 646.000000)">
                <circle id="Oval" fill="#D8D8D8" cx="50" cy="50" r="50"></circle>
                <text font-family="Calibri-Bold, Calibri" font-size="30" font-weight="bold" letter-spacing="0.1386204" fill="#727272">
                    <tspan x="25.2378959" y="61">edit</tspan>
                </text>
            </g>
            <g id="Group-3" transform="translate(20.000000, 562.000000)">
                <path d="M93,186 C144.362482,186 186,144.362482 186,93 C186,41.6375183 144.362482,0 93,0 C64.6547584,0 39.2713207,12.6809901 22.2133818,32.6792754 C8.36179147,48.9185208 0,69.9827599 0,93 C0,144.362482 41.6375183,186 93,186 Z" id="Oval" fill="#D8D8D8"></path>
                <text id="Embodied-Agent" font-family="Calibri-Bold, Calibri" font-size="35" font-weight="bold" letter-spacing="0.1212929" fill="#727272">
                    <tspan x="19.054135" y="87">Embodied</tspan>
                    <tspan x="49.8781642" y="129">Agent</tspan>
                </text>
            </g>
            <polygon id="Triangle" fill="#D8D8D8" transform="translate(946.500000, 456.500000) rotate(90.000000) translate(-946.500000, -456.500000) " points="946.5 433 992 480 901 480"></polygon>
        </g>
        <g id="1-home" transform="translate(1604.000000, 287.000000)">
            <rect id="outer" fill="#FFFFFF" x="0" y="0" width="1536" height="1152"></rect>
            <path d="M195,259.5 L1342.5,259.5 C1392.20563,259.5 1432.5,299.794373 1432.5,349.5 L1432.5,1110 L105,1110 L105,349.5 C105,299.794373 145.294373,259.5 195,259.5 Z" id="inner" fill="#B8B8B8"></path>
            <g id="new" transform="translate(676.000000, 731.000000)">
                <rect id="Rectangle" fill="#FCFCFC" x="0" y="0" width="300" height="300"></rect>
                <text id="theme" font-family="Calibri-Bold, Calibri" font-size="45" font-weight="bold" letter-spacing="0.103965305" fill="#727272">
                    <tspan x="89.6587879" y="166">theme</tspan>
                </text>
            </g>
            <g id="new" transform="translate(1005.000000, 356.000000)">
                <rect id="Rectangle" fill="#FCFCFC" x="0" y="0" width="300" height="300"></rect>
                <text id="theme" font-family="Calibri-Bold, Calibri" font-size="45" font-weight="bold" letter-spacing="0.103965305" fill="#727272">
                    <tspan x="89.6587879" y="166">theme</tspan>
                </text>
            </g>
            <g id="1" transform="translate(469.000000, 356.000000)">
                <rect id="Rectangle" fill="#D8D8D8" x="0" y="0" width="300" height="300"></rect>
                <text id="completed-theme" font-family="Calibri-Bold, Calibri" font-size="45" font-weight="bold" letter-spacing="0.103965305" fill="#727272">
                    <tspan x="50.1278593" y="138.25">completed </tspan>
                    <tspan x="88.9087879" y="193.25">theme</tspan>
                </text>
            </g>
            <g id="2" transform="translate(255.000000, 730.500000)">
                <rect id="Rectangle" fill="#D8D8D8" x="0" y="0" width="300" height="300"></rect>
                <text id="completed-theme" font-family="Calibri-Bold, Calibri" font-size="45" font-weight="bold" letter-spacing="0.103965305" fill="#727272">
                    <tspan x="50.1278593" y="138.25">completed </tspan>
                    <tspan x="88.9087879" y="193.25">theme</tspan>
                </text>
            </g>
            <g id="parent" transform="translate(1305.000000, 49.500000)">
                <circle id="Oval" fill="#D8D8D8" cx="75" cy="75" r="75"></circle>
                <text id="parent-mode" font-family="Calibri-Bold, Calibri" font-size="45" font-weight="bold" letter-spacing="0.20793061" fill="#727272">
                    <tspan x="12.4572629" y="62.5">parent</tspan>
                    <tspan x="20.78409" y="117.5">mode</tspan>
                </text>
            </g>
            <g id="Group-3" transform="translate(30.000000, 30.000000)">
                <path d="M139.5,279 C216.543723,279 279,216.543723 279,139.5 C279,62.4562774 216.543723,0 139.5,0 C96.9821376,0 58.906981,19.0214852 33.3200727,49.0189132 C12.5426872,73.3777813 0,104.97414 0,139.5 C0,216.543723 62.4562774,279 139.5,279 Z" id="Oval" fill="#D8D8D8"></path>
                <text id="Embodied-Agent" font-family="Calibri-Bold, Calibri" font-size="52.5" font-weight="bold" letter-spacing="0.181939289" fill="#727272">
                    <tspan x="28.5812028" y="131">Embodied</tspan>
                    <tspan x="74.8172465" y="195">Agent</tspan>
                </text>
            </g>
            <polygon id="Triangle" fill="#D8D8D8" transform="translate(1419.750000, 684.750000) rotate(90.000000) translate(-1419.750000, -684.750000) " points="1419.75 649.5 1488 720 1351.5 720"></polygon>
        </g>
        <g id="0-start" transform="translate(250.000000, 287.000000)">
            <rect id="Rectangle" fill="#FFFFFF" x="0" y="0" width="1024" height="768"></rect>
            <g id="Group" transform="translate(242.000000, 128.000000)">
                <rect id="Rectangle" fill="#D8D8D8" x="0" y="0" width="541" height="253"></rect>
                <text id="Logo" font-family="Calibri-Bold, Calibri" font-size="80" font-weight="bold" letter-spacing="0.1386204" fill="#727272">
                    <tspan x="191.226665" y="154">Logo</tspan>
                </text>
            </g>
            <g id="Group-3" transform="translate(753.000000, 547.000000)">
                <path d="M93,186 C144.362482,186 186,144.362482 186,93 C186,41.6375183 144.362482,0 93,0 C64.6547584,0 39.2713207,12.6809901 22.2133818,32.6792754 C8.36179147,48.9185208 0,69.9827599 0,93 C0,144.362482 41.6375183,186 93,186 Z" id="Oval" fill="#D8D8D8"></path>
                <text id="Embodied-Agent" font-family="Calibri-Bold, Calibri" font-size="35" font-weight="bold" letter-spacing="0.1212929" fill="#727272">
                    <tspan x="19.054135" y="87">Embodied</tspan>
                    <tspan x="49.8781642" y="129">Agent</tspan>
                </text>
            </g>
            <g id="Group-2" transform="translate(355.000000, 532.000000)">
                <rect id="Rectangle" fill="#D8D8D8" x="0" y="0" width="315" height="108" rx="54"></rect>
                <text id="Go" font-family="Calibri-Bold, Calibri" font-size="80" font-weight="bold" letter-spacing="0.1386204" fill="#727272">
                    <tspan x="110.369192" y="82">Go</tspan>
                </text>
            </g>
        </g>
        <text id="Home" font-family="Calibri-BoldItalic, Calibri" font-size="80" font-style="italic" font-weight="bold" letter-spacing="0.0693102032" fill="#000000">
            <tspan x="2274.23638" y="226">Home</tspan>
        </text>
        <text id="Landing-Page" font-family="Calibri-BoldItalic, Calibri" font-size="80" font-style="italic" font-weight="bold" letter-spacing="0.0693102032" fill="#000000">
            <tspan x="538.138826" y="226">Landing Page</tspan>
        </text>
        <text id="Draw-New" font-family="Calibri-BoldItalic, Calibri" font-size="80" font-style="italic" font-weight="bold" letter-spacing="0.0693102032" fill="#000000">
            <tspan x="2193.07432" y="1660">Draw New</tspan>
        </text>
        <text id="View-Completed" font-family="Calibri-BoldItalic, Calibri" font-size="80" font-style="italic" font-weight="bold" letter-spacing="0.0693102032" fill="#000000">
            <tspan x="924.280454" y="1660">View Completed</tspan>
        </text>
        <text id="Parent-Mode" font-family="Calibri-BoldItalic, Calibri" font-size="80" font-style="italic" font-weight="bold" letter-spacing="0.0693102032" fill="#000000">
            <tspan x="3301.06411" y="1660">Parent Mode</tspan>
        </text>
        <text id="Draw-With-Brushy-Wir" font-family="Chalkboard-Bold, Chalkboard" font-size="80" font-weight="bold" letter-spacing="0.0554481633" fill="#727272">
            <tspan x="250" y="3899">Draw With Brushy</tspan>
            <tspan x="250" y="4000">WireFrame</tspan>
            <tspan x="250" y="4101" font-family="Chalkboard" font-weight="normal">Wei Cheng</tspan>
            <tspan x="250" y="4202" font-family="Chalkboard" font-weight="normal">2019</tspan>
        </text>
        <path id="Line-3" d="M1545.5,676.5 L1274.5,676.5 L1269,676.5 L1269,665.5 L1274.5,665.5 L1545.5,665.5 L1545.5,641.5 L1604.5,671 L1545.5,700.5 L1545.5,676.5 Z" fill="#7F7F7F" fill-rule="nonzero"></path>
        <path id="Line-3" d="M1383.79995,1485.50538 L1383.5,1177.00535 L1383.49465,1171.5 L1389,1171.5 L1875,1171.5 L1880.5,1171.5 L1880.5,1182.5 L1875,1182.5 L1394.50535,1182.5 L1394.79995,1485.49468 L1418.79994,1485.47135 L1389.35731,1544.5 L1359.79996,1485.52871 L1383.79995,1485.50538 Z" fill="#7F7F7F" fill-rule="nonzero"></path>
        <path id="Line-3" d="M3400.5,1504.16175 L3400.5,416.5 L3059,416.5 L3053.5,416.5 L3053.5,405.5 L3059,405.5 L3406,405.5 L3411.5,405.5 L3411.5,411 L3411.5,1504.16175 L3435.5,1504.16175 L3406,1563.16175 L3376.5,1504.16175 L3400.5,1504.16175 Z" fill="#7F7F7F" fill-rule="nonzero"></path>
        <path id="Line-3" d="M2796,3422.5 L2796,3357.5 L2796,3352 L2807,3352 L2807,3357.5 L2807,3422.5 L2831,3422.5 L2801.5,3481.5 L2772,3422.5 L2796,3422.5 Z" fill="#7F7F7F" fill-rule="nonzero"></path>
        <path id="Line-3" d="M2363,2530.5 L2363,2465.5 L2363,2460 L2374,2460 L2374,2465.5 L2374,2530.5 L2398,2530.5 L2368.5,2589.5 L2339,2530.5 L2363,2530.5 Z" fill="#7F7F7F" fill-rule="nonzero"></path>
        <path id="Line-3" d="M2366.6136,1485.48943 L2367.00001,1286.48932 L2367.01069,1280.98933 L2378.01067,1281.01069 L2377.99999,1286.51068 L2377.61358,1485.51079 L2401.61354,1485.55739 L2371.99903,1544.5 L2342.61365,1485.44283 L2366.6136,1485.48943 Z" fill="#7F7F7F" fill-rule="nonzero"></path>
        <path id="Line-3" d="M1797,2424.5 L1648,2424.5 L1642.5,2424.5 L1642.5,2413.5 L1648,2413.5 L1797,2413.5 L1797,2389.5 L1856,2419 L1797,2448.5 L1797,2424.5 Z" fill="#7F7F7F" fill-rule="nonzero"></path>
    </g>
</svg>