<?xml version="1.0" encoding="UTF-8"?>
<svg width="150px" height="150px" viewBox="0 0 150 150" version="1.1" xmlns="http://www.w3.org/2000/svg" xmlns:xlink="http://www.w3.org/1999/xlink">
    <!-- Generator: Sketch 51.3 (57544) - http://www.bohemiancoding.com/sketch -->
    <title>observe-2</title>
    <desc>Created with Sketch.</desc>
    <defs></defs>
    <g id="Welcome" stroke="none" stroke-width="1" fill="none" fill-rule="evenodd">
        <g id="design-diary" transform="translate(-616.000000, -1784.000000)">
            <g id="observe-2" transform="translate(616.000000, 1784.000000)">
                <circle id="Oval-7" fill="#FFAAAA" cx="75" cy="75" r="75"></circle>
                <path d="M68.5801567,50 C63.1846196,50 67.1785434,79.5775008 66.1188737,80.1073356 C64.3200914,81.0067268 57.9751417,73.8295419 56.1763594,77.4271066 C55.2965258,79.1867737 57.7282833,83.219463 63.033136,88.3979492 C67.2854165,92.5489364 71.5089958,98.9505466 74.2133942,99.8939414 C78.2655409,101.307481 83.961685,99.2089015 91.3018265,93.5982032 C94.8993912,74.8928635 94.8993912,65.5401936 91.3018265,65.5401936 C89.4733527,65.5401936 88.5739615,68.2973282 88.603653,73.8115974 C88.5065005,67.3106493 87.258736,64.0601752 84.8603596,64.0601752 C82.4619831,64.0601752 81.3113711,67.3106493 81.4085236,73.8115974 C82.0081177,66.6164681 80.8089295,63.0189034 77.8109589,63.0189034 C74.8129884,63.0189034 73.6138001,66.6164681 74.2133942,73.8115974 C73.6601627,57.9371991 71.7824168,50 68.5801567,50 Z" id="Path-3" fill="#FFFFFF"></path>
            </g>
        </g>
    </g>
</svg>