<?xml version="1.0" encoding="UTF-8"?>
<svg width="200px" height="200px" viewBox="0 0 200 200" version="1.1" xmlns="http://www.w3.org/2000/svg" xmlns:xlink="http://www.w3.org/1999/xlink">
    <!-- Generator: Sketch 51.3 (57544) - http://www.bohemiancoding.com/sketch -->
    <title>observe-2</title>
    <desc>Created with Sketch.</desc>
    <defs></defs>
    <g id="Welcome" stroke="none" stroke-width="1" fill="none" fill-rule="evenodd">
        <g id="design-diary" transform="translate(-590.000000, -1462.000000)">
            <g id="observe-2" transform="translate(590.000000, 1462.000000)">
                <circle id="Oval-7" fill="#FFAAAA" cx="100" cy="100" r="100"></circle>
                <text id="Touch-Screen-Interac" font-family="HoboStd, Hobo Std" font-size="21" font-weight="400" line-spacing="32" letter-spacing="1.05000007" fill="#4A4A4A">
                    <tspan x="29.5029996" y="111">Touch Screen</tspan>
                    <tspan x="42.5019996" y="143">Interaction</tspan>
                </text>
                <path d="M93.5801567,33 C88.1846196,33 92.1785434,62.5775008 91.1188737,63.1073356 C89.3200914,64.0067268 82.9751417,56.8295419 81.1763594,60.4271066 C80.2965258,62.1867737 82.7282833,66.219463 88.033136,71.3979492 C92.2854165,75.5489364 96.5089958,81.9505466 99.2133942,82.8939414 C103.265541,84.3074809 108.961685,82.2089015 116.301826,76.5982032 C119.899391,57.8928635 119.899391,48.5401936 116.301826,48.5401936 C114.473353,48.5401936 113.573962,51.2973282 113.603653,56.8115974 C113.506501,50.3106493 112.258736,47.0601752 109.86036,47.0601752 C107.461983,47.0601752 106.311371,50.3106493 106.408524,56.8115974 C107.008118,49.6164681 105.808929,46.0189034 102.810959,46.0189034 C99.8129884,46.0189034 98.6138001,49.6164681 99.2133942,56.8115974 C98.6601627,40.9371991 96.7824168,33 93.5801567,33 Z" id="Path-3" fill="#FFFFFF"></path>
            </g>
        </g>
    </g>
</svg>