<?xml version="1.0" encoding="UTF-8"?>
<svg width="927px" height="261px" viewBox="0 0 927 261" version="1.1" xmlns="http://www.w3.org/2000/svg" xmlns:xlink="http://www.w3.org/1999/xlink">
    <!-- Generator: Sketch 51.3 (57544) - http://www.bohemiancoding.com/sketch -->
    <title>process</title>
    <desc>Created with Sketch.</desc>
    <defs></defs>
    <g id="Welcome" stroke="none" stroke-width="1" fill="none" fill-rule="evenodd">
        <g id="design-diary" transform="translate(-241.000000, -989.000000)">
            <g id="process" transform="translate(242.000000, 988.000000)">
                <path d="M0.5,137.25 L924.5,137.25" id="Line-4" stroke="#979797" stroke-width="3" stroke-linecap="square"></path>
                <circle id="Oval" fill="#F18080" cx="133" cy="136" r="14"></circle>
                <circle id="Oval" fill="#F79884" cx="346" cy="137" r="14"></circle>
                <circle id="Oval" fill="#63BA6F" cx="559" cy="137" r="14"></circle>
                <circle id="Oval" fill="#37AB85" cx="772" cy="137" r="14"></circle>
                <text id="Observe" font-family="Calibri-Bold, Calibri" font-size="32" font-weight="bold" letter-spacing="0.09406383" fill="#F18080">
                    <tspan x="78.2009282" y="60">Observe</tspan>
                </text>
                <text id="Ideate" font-family="Calibri-Bold, Calibri" font-size="32" font-weight="bold" letter-spacing="0.09406383" fill="#63BA6F">
                    <tspan x="517.310617" y="60">Ideate</tspan>
                </text>
                <g id="Group-2" transform="translate(559.000000, 0.000000)">
                    <path id="Line-5" d="M208.25,29 L212.75,20 L203.75,20 L208.25,29 Z M207.75,1.5 L207.75,20.5 L207.75,21 L208.75,21 L208.75,20.5 L208.75,1.5 L208.75,1 L207.75,1 L207.75,1.5 Z" fill="#63BA6F" fill-rule="nonzero"></path>
                    <path d="M1.44444444,1.5 L1.44444444,27.5 M1.44444444,1.5 L207.422222,1.5" id="Line" stroke="#63BA6F" stroke-linecap="square"></path>
                </g>
                <text id="Prototype" font-family="Calibri-Bold, Calibri" font-size="32" font-weight="bold" letter-spacing="0.09406383" fill="#37AB85">
                    <tspan x="705.419051" y="60">Prototype</tspan>
                </text>
                <text id="Research" font-family="Calibri-Bold, Calibri" font-size="32" font-weight="bold" letter-spacing="0.09406383" fill="#F79884">
                    <tspan x="286.434989" y="60">Research</tspan>
                </text>
                <text id="Emphathize---intervi" font-family="Calibri-Bold, Calibri" font-size="26" font-weight="bold" letter-spacing="0.07642688" fill="#4A4A4A">
                    <tspan x="71" y="193">Emphathize</tspan>
                    <tspan x="198.387316" y="193" font-family="Calibri" font-weight="normal"></tspan>
                    <tspan x="71" y="225" font-family="Calibri" font-weight="normal">- interview</tspan>
                    <tspan x="71" y="257" font-family="Calibri" font-weight="normal">- observation</tspan>
                </text>
                <text id="Define---insights--" font-family="Calibri-Bold, Calibri" font-size="26" font-weight="bold" letter-spacing="0.07642688" fill="#4A4A4A">
                    <tspan x="310" y="193">Define</tspan>
                    <tspan x="310" y="225" font-family="Calibri" font-weight="normal">- insights</tspan>
                    <tspan x="310" y="257" font-family="Calibri" font-weight="normal">- persona</tspan>
                </text>
                <text id="Solution---Lo-fi-wir" font-family="Calibri-Bold, Calibri" font-size="26" font-weight="bold" letter-spacing="0.07642688" fill="#4A4A4A">
                    <tspan x="728" y="193">Solution</tspan>
                    <tspan x="818.290848" y="193" font-family="Calibri" font-weight="normal"></tspan>
                    <tspan x="728" y="225" font-family="Calibri" font-weight="normal">- Lo-fi wireframe</tspan>
                    <tspan x="728" y="257" font-family="Calibri" font-weight="normal">- Hi-fi mockups</tspan>
                </text>
                <text id="Brainstorming---pape" font-family="Calibri-Bold, Calibri" font-size="26" font-weight="bold" letter-spacing="0.07642688" fill="#4A4A4A">
                    <tspan x="489" y="193">Brainstorming</tspan>
                    <tspan x="642.286518" y="193" font-family="Calibri" font-weight="normal"></tspan>
                    <tspan x="489" y="225" font-family="Calibri" font-weight="normal">- paper sketch </tspan>
                    <tspan x="489" y="257" font-family="Calibri" font-weight="normal">- user flow</tspan>
                </text>
                <g id="Group-2" transform="translate(664.500000, 91.500000) scale(-1, -1) translate(-664.500000, -91.500000) translate(560.000000, 77.000000)">
                    <path id="Line-5" d="M208.5,29 L213,20 L204,20 L208.5,29 Z M208,1.5 L208,20.5 L208,21 L209,21 L209,20.5 L209,1.5 L209,1 L208,1 L208,1.5 Z" fill="#63BA6F" fill-rule="nonzero"></path>
                    <path d="M1.45138889,1.5 L208.419444,1.5 L1.45138889,1.5 Z M1.45138889,1.5 L1.45138889,27.5 L1.45138889,1.5 Z" id="Line" stroke="#37AB85" stroke-linecap="square"></path>
                </g>
                <path d="" id="Path-2" stroke="#979797"></path>
            </g>
        </g>
    </g>
</svg>