<?xml version="1.0" encoding="UTF-8"?>
<svg width="970px" height="325px" viewBox="0 0 970 325" version="1.1" xmlns="http://www.w3.org/2000/svg" xmlns:xlink="http://www.w3.org/1999/xlink">
    <!-- Generator: Sketch 51.3 (57544) - http://www.bohemiancoding.com/sketch -->
    <title>stats</title>
    <desc>Created with Sketch.</desc>
    <defs></defs>
    <g id="Welcome" stroke="none" stroke-width="1" fill="none" fill-rule="evenodd">
        <g id="design-diary" transform="translate(-217.000000, -1341.000000)">
            <g id="stats" transform="translate(217.000000, 1341.000000)">
                <rect id="Rectangle-9" fill="#FFF2F2" x="0" y="0" width="970" height="325"></rect>
                <text id="Centers-for-Disease" font-family="Calibri-Bold, Calibri" font-size="11" font-weight="bold" letter-spacing="0.139206201" fill="#7F7F7F">
                    <tspan x="345" y="271">Centers for Disease Control and Prevention (CDC), 2018</tspan>
                    <tspan x="345" y="284">autism’s estimated prevalence among children in US</tspan>
                    <tspan x="345" y="297">based on an analysis of 2014 medical and educational records of 8-11 year-old</tspan>
                </text>
                <text id="AUTISM-children" font-family="Calibri-Bold, Calibri" font-size="40" font-weight="bold" letter-spacing="0.0686982945" fill="#B4B4B4">
                    <tspan x="345.117575" y="250">AUTISM children</tspan>
                </text>
                <g id="Group" transform="translate(348.000000, 63.000000)" fill="#FFFFFF">
                    <circle id="Oval-8" cx="234" cy="10" r="10"></circle>
                    <circle id="Oval-8" cx="206" cy="10" r="10"></circle>
                    <circle id="Oval-8" cx="178" cy="10" r="10"></circle>
                    <circle id="Oval-8" cx="150" cy="10" r="10"></circle>
                    <circle id="Oval-8" cx="122" cy="10" r="10"></circle>
                    <circle id="Oval-8" cx="94" cy="10" r="10"></circle>
                    <circle id="Oval-8" cx="66" cy="10" r="10"></circle>
                    <circle id="Oval-8" cx="38" cy="10" r="10"></circle>
                    <circle id="Oval-8" cx="10" cy="10" r="10"></circle>
                    <circle id="Oval-8" cx="262" cy="10" r="10"></circle>
                </g>
                <g id="Group" transform="translate(348.000000, 33.000000)" fill="#FFFFFF">
                    <circle id="Oval-8" cx="234" cy="10" r="10"></circle>
                    <circle id="Oval-8" cx="206" cy="10" r="10"></circle>
                    <circle id="Oval-8" cx="178" cy="10" r="10"></circle>
                    <circle id="Oval-8" cx="150" cy="10" r="10"></circle>
                    <circle id="Oval-8" cx="122" cy="10" r="10"></circle>
                    <circle id="Oval-8" cx="94" cy="10" r="10"></circle>
                    <circle id="Oval-8" cx="66" cy="10" r="10"></circle>
                    <circle id="Oval-8" cx="38" cy="10" r="10"></circle>
                    <circle id="Oval-8" cx="10" cy="10" r="10"></circle>
                    <circle id="Oval-8" cx="262" cy="10" r="10"></circle>
                </g>
                <g id="Group" transform="translate(348.000000, 183.000000)" fill="#FFFFFF">
                    <circle id="Oval-8" cx="234" cy="10" r="10"></circle>
                    <circle id="Oval-8" cx="206" cy="10" r="10"></circle>
                    <circle id="Oval-8" cx="178" cy="10" r="10"></circle>
                    <circle id="Oval-8" cx="150" cy="10" r="10"></circle>
                    <circle id="Oval-8" cx="122" cy="10" r="10"></circle>
                    <circle id="Oval-8" cx="94" cy="10" r="10"></circle>
                    <circle id="Oval-8" cx="66" cy="10" r="10"></circle>
                    <circle id="Oval-8" cx="38" cy="10" r="10"></circle>
                    <circle id="Oval-8" cx="10" cy="10" r="10"></circle>
                </g>
                <g id="Group" transform="translate(348.000000, 151.000000)">
                    <circle id="Oval-8" fill="#FF9494" cx="234.5" cy="11.5" r="11.5"></circle>
                    <circle id="Oval-8" fill="#FFFFFF" cx="206" cy="12" r="10"></circle>
                    <circle id="Oval-8" fill="#FFFFFF" cx="178" cy="12" r="10"></circle>
                    <circle id="Oval-8" fill="#FFFFFF" cx="150" cy="12" r="10"></circle>
                    <circle id="Oval-8" fill="#FFFFFF" cx="122" cy="12" r="10"></circle>
                    <circle id="Oval-8" fill="#FFFFFF" cx="94" cy="12" r="10"></circle>
                    <circle id="Oval-8" fill="#FFFFFF" cx="66" cy="12" r="10"></circle>
                    <circle id="Oval-8" fill="#FFFFFF" cx="38" cy="12" r="10"></circle>
                    <circle id="Oval-8" fill="#FFFFFF" cx="10" cy="12" r="10"></circle>
                    <circle id="Oval-8" fill="#FFFFFF" cx="262" cy="12" r="10"></circle>
                </g>
                <g id="Group" transform="translate(348.000000, 93.000000)" fill="#FFFFFF">
                    <circle id="Oval-8" cx="234" cy="10" r="10"></circle>
                    <circle id="Oval-8" cx="206" cy="10" r="10"></circle>
                    <circle id="Oval-8" cx="178" cy="10" r="10"></circle>
                    <circle id="Oval-8" cx="150" cy="10" r="10"></circle>
                    <circle id="Oval-8" cx="122" cy="10" r="10"></circle>
                    <circle id="Oval-8" cx="94" cy="10" r="10"></circle>
                    <circle id="Oval-8" cx="66" cy="10" r="10"></circle>
                    <circle id="Oval-8" cx="38" cy="10" r="10"></circle>
                    <circle id="Oval-8" cx="10" cy="10" r="10"></circle>
                    <circle id="Oval-8" cx="262" cy="10" r="10"></circle>
                </g>
                <g id="Group" transform="translate(348.000000, 123.000000)" fill="#FFFFFF">
                    <circle id="Oval-8" cx="234" cy="10" r="10"></circle>
                    <circle id="Oval-8" cx="206" cy="10" r="10"></circle>
                    <circle id="Oval-8" cx="178" cy="10" r="10"></circle>
                    <circle id="Oval-8" cx="150" cy="10" r="10"></circle>
                    <circle id="Oval-8" cx="122" cy="10" r="10"></circle>
                    <circle id="Oval-8" cx="94" cy="10" r="10"></circle>
                    <circle id="Oval-8" cx="66" cy="10" r="10"></circle>
                    <circle id="Oval-8" cx="38" cy="10" r="10"></circle>
                    <circle id="Oval-8" cx="10" cy="10" r="10"></circle>
                    <circle id="Oval-8" cx="262" cy="10" r="10"></circle>
                </g>
                <text id="1-in-59" font-family="Calibri-Bold, Calibri" font-size="51" font-weight="bold" letter-spacing="0.139206186" fill="#4A4A4A">
                    <tspan x="410.263267" y="152">1 in 59</tspan>
                </text>
            </g>
        </g>
    </g>
</svg>